<svg width="1024" height="1024" viewBox="0 0 1024 1024" fill="none" xmlns="http://www.w3.org/2000/svg">
<g clip-path="url(#clip0_7115_5954)">
<g filter="url(#filter0_d_7115_5954)">
<rect width="1024" height="1024" rx="150" fill="url(#paint0_linear_7115_5954)"/>
</g>
<path d="M215 538.743H264.468C266.541 538.743 268.398 540.021 269.138 541.957L292.998 604.368C294.797 609.073 301.638 608.466 302.58 603.518L333.016 443.726C333.993 438.594 341.194 438.21 342.712 443.209L403.209 642.526C404.791 647.736 412.381 647.024 412.965 641.61L440.732 384.18C441.324 378.692 449.064 378.07 450.525 383.393L514.363 615.994C515.711 620.908 522.686 620.892 524.012 615.971L552.513 510.188C553.697 505.796 559.654 505.137 561.768 509.165L606.777 594.914C608.761 598.694 614.263 598.409 615.847 594.445L641.972 529.061C643.436 525.398 648.366 524.793 650.672 527.993L679.901 568.559C681.939 571.388 686.174 571.315 688.113 568.418L712.728 531.644C714.129 529.552 716.866 528.827 719.118 529.953L736.711 538.743C751.476 542.329 786.606 547.349 809 538.743" stroke="#EEEEF3" stroke-width="40" stroke-linecap="round"/>
</g>
<defs>
<filter id="filter0_d_7115_5954" x="-145.8" y="-145.8" width="1315.6" height="1315.6" filterUnits="userSpaceOnUse" color-interpolation-filters="sRGB">
<feFlood flood-opacity="0" result="BackgroundImageFix"/>
<feColorMatrix in="SourceAlpha" type="matrix" values="0 0 0 0 0 0 0 0 0 0 0 0 0 0 0 0 0 0 127 0" result="hardAlpha"/>
<feOffset/>
<feGaussianBlur stdDeviation="72.9"/>
<feComposite in2="hardAlpha" operator="out"/>
<feColorMatrix type="matrix" values="0 0 0 0 0 0 0 0 0 0 0 0 0 0 0 0 0 0 0.45 0"/>
<feBlend mode="normal" in2="BackgroundImageFix" result="effect1_dropShadow_7115_5954"/>
<feBlend mode="normal" in="SourceGraphic" in2="effect1_dropShadow_7115_5954" result="shape"/>
</filter>
<linearGradient id="paint0_linear_7115_5954" x1="512" y1="0" x2="512" y2="1024" gradientUnits="userSpaceOnUse">
<stop stop-color="#935DE9"/>
<stop offset="1" stop-color="#6A29CF"/>
</linearGradient>
<clipPath id="clip0_7115_5954">
<rect width="1024" height="1024" fill="white"/>
</clipPath>
</defs>
</svg>
